<svg id="Capa_1" enable-background="new 0 0 512 512" height="512" viewBox="0 0 512 512" width="512" xmlns="http://www.w3.org/2000/svg"><path d="m512 135v332c0 24.81-20.19 45-45 45h-422c-24.81 0-45-20.19-45-45v-332l255.95-10h.05z" fill="#fff7cc"/><path d="m512 135v332c0 24.81-20.19 45-45 45h-211v-387z" fill="#ffe6b3"/><path d="m512 45v90h-512v-90c0-24.81 20.19-45 45-45h422c24.81 0 45 20.19 45 45z" fill="#5b5555"/><path d="m512 45v90h-256v-135h211c24.81 0 45 20.19 45 45z" fill="#463f3f"/><path d="m436 242h-120c-8.284 0-15-6.716-15-15s6.716-15 15-15h120c8.284 0 15 6.716 15 15s-6.716 15-15 15z" fill="#5b5555"/><path d="m346 272c-8.284 0-15-6.716-15-15v-60c0-8.284 6.716-15 15-15s15 6.716 15 15v60c0 8.284-6.716 15-15 15z" fill="#979fef"/><path d="m436 332h-120c-8.284 0-15-6.716-15-15s6.716-15 15-15h120c8.284 0 15 6.716 15 15s-6.716 15-15 15z" fill="#5b5555"/><path d="m406 362c-8.284 0-15-6.716-15-15v-60c0-8.284 6.716-15 15-15s15 6.716 15 15v60c0 8.284-6.716 15-15 15z" fill="#979fef"/><path d="m436 422h-120c-8.284 0-15-6.716-15-15s6.716-15 15-15h120c8.284 0 15 6.716 15 15s-6.716 15-15 15z" fill="#5b5555"/><path d="m376 452c-8.284 0-15-6.716-15-15v-60c0-8.284 6.716-15 15-15s15 6.716 15 15v60c0 8.284-6.716 15-15 15z" fill="#979fef"/><g fill="#ff637b"><circle cx="76" cy="75" r="15"/><circle cx="136" cy="75" r="15"/><circle cx="196" cy="75" r="15"/></g><path d="m256 316-105 7-105-7c0-3.84 1.46-7.68 4.39-10.61l90-90c2.93-2.93 6.77-4.39 10.61-4.39s7.68 1.46 10.61 4.39l90 90c2.93 2.93 4.39 6.77 4.39 10.61z" fill="#ffda2d"/><path d="m256 316-105 7v-112c3.84 0 7.68 1.46 10.61 4.39l90 90c2.93 2.93 4.39 6.77 4.39 10.61z" fill="#fdbf00"/><path d="m256 316c0 3.84-1.46 7.68-4.39 10.61l-90 90c-2.93 2.93-6.77 4.39-10.61 4.39s-7.68-1.46-10.61-4.39l-90-90c-2.93-2.93-4.39-6.77-4.39-10.61z" fill="#fdbf00"/><path d="m256 316c0 3.84-1.46 7.68-4.39 10.61l-90 90c-2.93 2.93-6.77 4.39-10.61 4.39v-105z" fill="#ff9100"/></svg>